<?xml version="1.0" standalone="no"?>
<!DOCTYPE svg PUBLIC "-//W3C//DTD SVG 20010904//EN"
 "http://www.w3.org/TR/2001/REC-SVG-20010904/DTD/svg10.dtd">
<svg version="1.0" xmlns="http://www.w3.org/2000/svg"
 width="750.000000pt" height="1000.000000pt" viewBox="0 0 750.000000 1000.000000"
 preserveAspectRatio="xMidYMid meet">

<g transform="translate(0.000000,1000.000000) scale(0.100000,-0.100000)"
fill="#000000" stroke="none">
<path d="M3549 9965 c-77 -20 -161 -51 -217 -79 -50 -25 -138 -64 -194 -87
-57 -22 -119 -51 -138 -64 -19 -12 -78 -38 -130 -56 -52 -18 -107 -41 -122
-51 -15 -10 -51 -27 -80 -37 -29 -11 -92 -37 -139 -60 -47 -23 -94 -41 -103
-41 -9 0 -31 -7 -49 -17 -34 -17 -193 -80 -289 -115 -32 -11 -67 -31 -77 -44
-10 -13 -28 -24 -39 -24 -11 0 -24 -6 -30 -12 -6 -8 -11 -108 -13 -258 l-3
-245 29 -5 c39 -7 55 -40 55 -119 0 -61 1 -63 23 -56 60 18 96 25 136 25 24 0
172 32 330 71 461 114 590 176 798 387 110 112 123 122 127 101 7 -33 22 -592
18 -655 l-4 -52 -91 2 -91 1 -9 -40 c-4 -22 -6 -62 -2 -90 l6 -50 82 0 82 0 0
-65 c0 -41 5 -70 14 -79 15 -17 10 -96 -7 -113 -12 -12 -36 -16 -287 -52 -93
-14 -204 -26 -245 -28 l-74 -3 -33 100 c-18 55 -40 106 -50 113 -9 6 -40 12
-68 12 -28 0 -56 5 -63 12 -7 7 -12 34 -12 60 0 43 -5 54 -41 93 -72 78 -98
85 -307 85 -195 0 -230 -7 -281 -53 -31 -29 -71 -114 -71 -153 0 -17 -5 -45
-11 -63 -8 -22 -8 -35 0 -44 6 -8 7 -17 2 -23 -5 -5 -15 -71 -22 -146 -9 -105
-9 -170 0 -280 18 -233 34 -352 48 -373 7 -11 13 -30 13 -44 0 -37 46 -107 87
-133 36 -22 47 -23 198 -23 222 1 267 8 310 51 19 19 39 34 44 34 5 0 8 56 6
138 -1 75 -1 115 1 87 12 -161 17 -199 25 -180 4 11 8 43 8 72 1 64 11 71 131
89 101 15 112 11 215 -66 113 -86 197 -140 218 -140 10 0 21 -9 24 -20 3 -11
8 -18 12 -16 3 3 34 -21 68 -52 80 -75 91 -109 76 -241 -13 -115 -56 -241 -83
-241 -10 0 -23 7 -30 15 -31 38 -53 0 -66 -115 -7 -63 -27 -89 -85 -115 -51
-23 -59 -15 -73 70 -6 36 -15 66 -21 65 -17 -1 -33 -62 -34 -130 -2 -94 -7
-106 -72 -150 -77 -52 -83 -52 -74 7 15 103 23 245 21 399 l-1 161 -68 102
c-37 55 -72 101 -77 101 -13 0 -13 -47 6 -435 14 -303 14 -344 -1 -495 -22
-218 -21 -217 -83 -265 -29 -22 -61 -55 -72 -73 -22 -36 -27 -107 -8 -118 7
-4 8 -3 4 5 -11 16 3 92 17 95 7 2 37 9 67 16 30 7 73 23 96 36 l41 24 1 -34
c1 -36 3 -34 -100 -80 -52 -23 -58 -29 -64 -63 -4 -21 -24 -72 -44 -113 -77
-155 -139 -307 -150 -370 -19 -108 8 -990 45 -1466 16 -201 27 -318 40 -404 8
-52 21 -149 30 -215 18 -136 133 -830 141 -858 3 -11 21 -25 40 -33 33 -14 34
-16 34 -72 0 -78 -7 -86 -56 -69 -31 11 -97 13 -329 8 -262 -6 -293 -8 -322
-26 -42 -25 -78 -95 -94 -186 -7 -41 -16 -76 -20 -79 -29 -20 -42 -645 -15
-730 8 -25 22 -78 30 -119 18 -80 56 -140 107 -167 57 -29 449 -36 536 -9 18
6 23 2 28 -18 4 -14 5 -29 2 -34 -3 -4 -12 -73 -22 -153 -9 -80 -28 -218 -42
-307 -29 -181 -28 -186 36 -202 20 -4 569 -8 1219 -7 l1184 1 18 22 c16 20 16
28 4 105 -29 177 -74 567 -68 596 l6 30 35 -23 c48 -33 100 -39 302 -32 188 6
251 19 289 60 23 25 64 127 81 202 32 143 20 680 -19 835 -23 96 -67 188 -101
213 -27 20 -112 23 -384 17 -59 -1 -107 4 -140 14 -75 24 -111 20 -169 -15
-59 -37 -70 -50 -86 -101 -12 -41 -40 -55 -85 -44 -21 5 -25 12 -25 44 1 75
71 289 91 276 5 -3 9 4 9 15 0 10 7 48 15 83 8 35 20 86 26 113 15 68 76 287
99 355 10 30 22 72 26 93 3 20 11 40 16 43 17 11 2 -115 -36 -306 -90 -457
-89 -438 -23 -426 26 5 37 14 45 34 11 30 113 675 137 872 72 582 98 1023 99
1670 l1 435 -36 80 c-21 44 -62 135 -93 202 -31 67 -60 138 -64 158 -7 34 -12
38 -102 76 -52 23 -101 47 -109 54 -31 30 27 48 72 23 12 -7 49 -20 82 -28 49
-12 60 -19 66 -40 7 -25 7 -25 8 -2 1 33 -14 60 -65 112 l-44 45 -25 199 c-24
198 -24 203 -13 515 15 401 16 443 2 448 -15 5 -105 -151 -120 -206 -13 -54
-3 -423 16 -535 7 -43 7 -73 2 -78 -6 -6 -37 11 -81 44 l-71 53 0 55 c0 61
-16 179 -24 188 -14 13 -16 -12 -7 -109 5 -57 6 -108 1 -112 -4 -5 -37 13 -73
40 -36 26 -77 56 -90 65 -22 16 -26 27 -32 101 -10 123 -28 135 -21 15 4 -54
2 -98 -2 -98 -20 0 -64 61 -88 121 -50 126 -74 210 -85 304 -12 106 -9 129 23
170 19 25 22 38 19 115 l-3 86 44 20 c24 10 153 93 288 183 303 203 320 213
320 203 0 -24 -232 -222 -404 -346 -23 -16 -68 -55 -101 -86 -33 -32 -76 -71
-95 -88 -68 -61 -14 -31 65 36 45 37 97 75 117 85 20 9 74 46 119 82 46 36 96
67 114 71 49 9 205 -13 226 -32 10 -9 21 -40 26 -77 7 -57 8 -50 14 83 l5 145
0 -162 c-1 -88 2 -159 6 -157 9 6 53 -36 59 -55 6 -17 162 -34 319 -35 139 -1
192 15 244 76 27 31 35 51 39 91 2 29 10 81 18 117 9 46 13 158 14 380 0 430
-18 545 -97 627 -45 47 -108 57 -300 49 -187 -7 -220 -18 -282 -88 -35 -40
-45 -60 -50 -101 -4 -28 -12 -57 -18 -64 -6 -8 -34 -13 -68 -13 -55 0 -58 -1
-73 -32 -8 -18 -21 -62 -27 -98 -18 -96 -17 -95 -96 -92 -96 4 -488 50 -517
61 -40 16 -50 36 -43 93 4 29 9 81 12 116 l6 62 78 0 79 0 4 -52 c2 -29 4 4 5
74 1 69 -1 133 -4 142 -5 13 -23 16 -93 16 -50 0 -92 5 -98 11 -6 6 -9 27 -6
47 2 21 7 173 11 339 8 334 12 354 59 298 60 -73 173 -181 229 -221 141 -101
342 -178 595 -229 74 -15 181 -38 239 -52 58 -14 143 -29 190 -33 47 -5 98
-12 114 -16 l29 -7 -7 85 c-7 93 -5 98 50 98 28 0 27 -10 24 165 -3 198 -2
189 -36 195 -26 5 -29 9 -29 45 0 38 2 40 30 40 23 1 31 6 33 23 4 28 -26 68
-63 83 -16 7 -41 20 -55 29 -14 10 -41 20 -61 23 -20 3 -61 17 -91 30 -31 14
-95 40 -144 57 -49 17 -95 37 -104 44 -16 13 -140 48 -176 50 -11 1 -34 13
-51 27 -31 26 -185 90 -361 150 -52 17 -116 47 -144 65 -27 19 -55 34 -61 34
-5 0 -49 18 -96 40 -102 46 -262 86 -381 93 -75 5 -100 1 -211 -28z m721 -229
c0 -7 -6 -19 -14 -25 -11 -9 -13 -26 -9 -67 7 -61 -12 -77 -23 -19 -7 40 -16
44 -36 14 -8 -13 -21 -20 -33 -17 -17 3 -11 13 39 66 60 63 76 73 76 48z
m-967 -58 c9 -24 20 -58 23 -77 12 -58 -16 -32 -42 39 -28 76 -28 80 -10 80 7
0 21 -19 29 -42z m-63 -3 c32 -17 36 -29 20 -69 -14 -38 -33 -33 -25 5 6 27 3
35 -21 55 -33 26 -18 32 26 9z m1092 -24 c8 -31 28 -35 28 -5 0 8 7 14 15 14
19 0 19 5 -5 -66 -31 -91 -30 -88 -40 -78 -7 7 -6 21 1 43 14 40 7 48 -25 27
-32 -20 -48 -1 -17 21 18 12 20 21 15 50 -9 46 16 41 28 -6z m-1154 17 c7 -7
12 -20 12 -30 0 -19 -37 -44 -48 -32 -4 4 -1 9 6 11 19 7 15 35 -5 31 -23 -4
-29 -51 -8 -68 13 -11 18 -10 33 4 23 20 32 20 32 1 0 -17 -30 -35 -60 -35
-15 0 -25 11 -36 35 -20 49 -18 59 19 78 40 20 40 20 55 5z m1297 -48 c24 -26
11 -39 -15 -15 -15 13 -24 15 -31 8 -8 -8 -4 -16 15 -28 29 -19 35 -52 11 -61
-23 -9 -62 4 -69 22 -9 25 1 30 22 11 23 -21 32 -21 32 -2 0 8 -4 15 -9 15 -5
0 -17 7 -25 16 -12 12 -13 20 -6 35 14 25 52 24 75 -1z m-1506 -53 c11 -35 21
-66 21 -70 0 -4 -17 -14 -37 -22 -37 -16 -38 -16 -60 10 -13 14 -23 34 -23 43
1 24 24 52 44 52 21 0 21 -16 0 -28 -23 -13 -14 -56 12 -60 30 -4 36 21 19 71
-17 48 -19 67 -6 67 4 0 18 -28 30 -63z m99 46 c2 -9 -7 -13 -27 -13 -17 0
-31 -4 -31 -10 0 -5 16 -10 35 -10 63 0 59 -62 -4 -68 -23 -2 -31 1 -31 12 0
10 8 15 21 13 12 -1 24 3 26 10 3 7 -8 11 -28 10 -46 -3 -62 27 -30 54 26 21
62 22 69 2z m687 -43 c0 -31 -3 -35 -25 -35 -22 0 -25 5 -28 38 -3 37 -2 38
25 35 25 -3 28 -7 28 -38z m805 14 c0 -31 -23 -94 -34 -94 -27 0 -56 14 -53
24 3 6 10 10 17 8 19 -4 38 16 45 49 7 31 25 40 25 13z m91 -24 c29 -16 25
-64 -7 -89 -24 -19 -28 -19 -55 -5 -19 9 -29 22 -29 38 0 31 8 37 36 24 27
-12 33 -31 8 -21 -12 4 -15 2 -12 -8 7 -22 36 -22 47 0 16 29 3 51 -30 51 -16
0 -29 5 -29 10 0 13 46 13 71 0z m159 -18 c0 -15 -40 -126 -48 -133 -4 -4 -24
0 -44 8 -35 14 -38 18 -38 54 0 32 5 42 24 51 27 12 56 5 56 -12 0 -6 -8 -9
-17 -6 -26 8 -45 -8 -41 -35 2 -18 9 -24 28 -24 22 0 27 7 39 53 8 30 20 52
27 52 8 0 14 -4 14 -8z m-1956 -24 c21 -29 20 -51 -2 -78 -15 -18 -25 -22 -46
-16 -35 9 -45 35 -21 52 22 16 45 18 45 4 0 -5 -7 -10 -15 -10 -8 0 -15 -5
-15 -11 0 -6 8 -9 18 -7 22 4 27 41 7 58 -13 11 -19 10 -35 -5 -26 -24 -39
-11 -15 15 24 26 60 25 79 -2z m-101 -65 c16 -46 12 -55 -30 -67 -28 -9 -31
11 -6 30 16 11 16 17 6 45 -12 32 -8 58 7 42 5 -4 15 -27 23 -50z m2128 19
c13 -12 18 -21 12 -25 -6 -4 -16 0 -23 8 -14 16 -40 20 -40 6 0 -5 11 -16 25
-25 30 -20 32 -42 4 -56 -16 -9 -26 -8 -45 5 -38 24 -32 47 6 23 31 -20 35 -1
4 25 -51 44 3 82 57 39z m-1081 -14 c0 -6 7 -7 16 -4 8 3 12 2 9 -4 -9 -15
-52 -12 -58 4 -3 8 -3 16 0 19 8 8 33 -4 33 -15z m540 -5 c16 9 23 9 36 -5 9
-9 14 -24 11 -32 -8 -21 -53 -21 -61 0 -3 9 -12 14 -20 11 -8 -3 -22 1 -33 8
-15 12 -16 14 -2 15 9 0 23 7 30 17 13 15 14 15 17 -5 3 -18 6 -20 22 -9z
m-1675 7 c4 -6 -7 -10 -24 -10 -21 0 -31 -5 -31 -15 0 -11 7 -13 28 -9 54 11
67 -47 15 -67 -34 -13 -43 -11 -43 6 0 8 9 15 19 15 11 0 23 5 26 10 4 6 -8
10 -28 10 -39 0 -53 20 -37 51 11 20 64 27 75 9z m1045 -10 c0 -4 -11 -7 -24
-6 -18 1 -22 4 -14 13 10 12 38 7 38 -7z m190 8 c0 -4 -3 -8 -7 -8 -5 0 -18
-3 -30 -6 -16 -5 -23 -2 -23 8 0 10 10 15 30 15 17 0 30 -4 30 -9z m-670 -14
c29 -15 32 -20 27 -50 -7 -45 -29 -65 -75 -71 -82 -11 -102 84 -27 125 27 15
37 15 75 -4z m404 7 c3 -5 -10 -11 -30 -13 -32 -4 -34 -3 -18 9 21 15 40 17
48 4z m1365 -16 c20 -19 5 -55 -24 -55 -13 0 -27 5 -30 10 -3 6 3 10 14 10 12
0 21 7 21 15 0 24 -40 18 -49 -7 -10 -26 4 -50 27 -46 8 2 17 -3 20 -10 6 -20
-58 -11 -71 10 -8 11 -7 28 2 58 12 40 14 41 44 35 18 -4 38 -13 46 -20z
m-2576 -24 c-3 -12 8 -33 31 -59 20 -22 36 -42 36 -46 0 -14 -31 -4 -42 14
-18 29 -26 25 -34 -15 -3 -19 -11 -35 -17 -35 -10 0 -3 122 9 154 8 22 23 10
17 -13z m147 10 c0 -10 7 -35 15 -54 18 -43 19 -70 4 -65 -10 3 -48 107 -49
131 0 4 7 7 15 7 8 0 15 -8 15 -19z m2494 -43 c5 -21 1 -30 -16 -42 -12 -9
-32 -16 -43 -16 -18 1 -17 3 8 21 24 18 27 26 21 58 -6 32 -5 34 9 21 8 -8 17
-27 21 -42z m-2546 26 c24 -16 28 -44 12 -75 -16 -30 -31 -23 -19 8 9 24 7 31
-15 50 -14 12 -26 25 -26 28 0 10 26 5 48 -11z m1740 0 c38 -26 23 -74 -24
-74 -25 0 -54 24 -54 45 0 17 27 45 43 45 7 0 23 -7 35 -16z m182 6 c0 -6 10
-8 24 -4 20 5 24 1 29 -23 6 -34 -1 -44 -15 -20 -8 14 -13 16 -24 6 -11 -9
-14 -8 -14 6 0 13 -6 16 -25 11 -29 -7 -34 8 -7 23 22 13 32 14 32 1z m-634
-15 c19 -15 19 -15 -1 -30 -18 -14 -21 -14 -37 7 -19 25 -24 18 -8 -13 13 -24
2 -25 -16 -1 -12 16 -13 16 -14 0 0 -9 5 -20 10 -23 6 -3 10 -11 10 -18 0 -6
-11 1 -25 16 -14 15 -30 27 -35 27 -21 0 -9 39 13 43 48 9 84 6 103 -8z m1307
-5 c1 -3 -7 -33 -17 -67 -12 -40 -25 -63 -34 -63 -8 0 -12 6 -9 13 2 6 12 38
21 70 9 32 22 57 27 55 6 -2 11 -6 12 -8z m-2101 -27 c15 -15 28 -30 28 -35 0
-14 -21 -9 -38 9 -16 16 -17 15 -20 -10 -2 -16 -10 -27 -18 -27 -12 0 -13 8
-8 38 11 62 15 64 56 25z m1568 -3 c8 -15 6 -21 -9 -30 -32 -16 -73 13 -55 41
10 17 53 9 64 -11z m-1680 -66 c0 -21 -17 -34 -46 -34 -26 0 -27 29 -2 59 20
26 24 27 36 13 6 -9 12 -26 12 -38z m1756 11 c-6 -29 -11 -35 -31 -35 -24 0
-53 35 -40 48 8 8 69 29 74 26 2 -2 0 -19 -3 -39z m-1721 25 c-3 -5 -10 -10
-16 -10 -5 0 -9 5 -9 10 0 6 7 10 16 10 8 0 12 -4 9 -10z m-119 -25 c8 -21
-14 -45 -41 -45 -29 0 -39 25 -19 45 20 19 53 19 60 0z m237 -55 c-12 -13 -15
-13 -24 0 -8 11 -12 12 -16 3 -2 -7 -16 -13 -29 -13 -25 0 -57 -15 -82 -37
-19 -18 -30 -16 -37 8 -8 24 -6 27 22 32 12 1 27 8 35 13 7 6 25 9 41 8 15 -2
27 1 27 6 0 5 12 16 27 24 25 13 28 12 39 -8 8 -16 8 -24 -3 -36z m1721 44 c9
-25 7 -74 -4 -74 -5 0 -12 11 -16 25 -6 24 -8 25 -25 9 -30 -27 -41 -6 -12 26
29 33 48 38 57 14z m-2052 -21 c24 -21 23 -36 -2 -28 -12 4 -20 2 -20 -5 0 -7
-7 -9 -16 -6 -10 4 -22 -1 -29 -11 -17 -23 -25 -15 -18 20 4 20 11 27 29 27
13 0 24 5 24 10 0 15 11 12 32 -7z m938 -33 c0 -16 -4 -30 -10 -30 -5 0 -10 5
-10 12 0 6 -7 20 -17 30 -15 17 -15 18 10 18 23 0 27 -4 27 -30z m80 -6 c0
-25 -14 -32 -25 -14 -5 8 -11 8 -19 1 -16 -13 -26 -4 -26 24 0 18 5 20 35 17
29 -3 35 -8 35 -28z m64 30 c9 -3 16 -17 16 -30 0 -20 -5 -24 -30 -24 -32 0
-47 18 -36 45 6 16 24 19 50 9z m68 -13 c3 8 14 10 31 5 30 -7 33 -14 14 -40
-11 -14 -21 -17 -46 -11 -35 7 -47 25 -36 53 6 16 7 16 20 -1 9 -12 14 -14 17
-6z m-272 -22 c0 -26 -3 -30 -22 -27 -17 2 -24 11 -26 31 -3 23 0 27 22 27 22
0 26 -4 26 -31z m-980 2 c0 -24 -25 -45 -46 -37 -8 3 -22 -1 -30 -9 -31 -31
-43 -15 -22 29 9 20 14 23 25 15 10 -9 13 -8 13 5 0 11 9 16 30 16 23 0 30 -5
30 -19z m2052 -4 c16 -6 28 -18 28 -25 0 -7 5 -10 10 -7 6 3 10 -1 10 -9 0
-20 -14 -20 -34 -1 -8 8 -31 16 -50 17 -28 2 -36 7 -37 23 -1 17 -2 17 -6 3
-5 -21 -23 -24 -23 -5 0 31 39 33 102 4z m294 5 c17 -11 34 -48 34 -76 0 -31
-29 -48 -73 -44 -68 7 -103 78 -55 112 23 17 75 21 94 8z m-2976 -63 c0 -35
-3 -39 -25 -39 -22 0 -25 4 -25 39 0 29 4 41 18 44 27 6 32 -1 32 -44z m2774
35 c9 -3 16 -10 16 -16 0 -5 -5 -6 -11 -2 -8 4 -9 0 -4 -15 3 -11 3 -21 -2
-21 -13 0 -34 40 -28 50 7 12 9 12 29 4z m-911 -53 c10 -1 17 -9 17 -20 0 -17
-7 -18 -72 -15 -40 1 -80 3 -90 3 -11 1 -15 7 -11 21 5 20 16 20 156 11z
m-1293 -27 c11 -12 10 -18 -3 -32 -16 -15 -17 -15 -17 1 0 9 -7 17 -15 17 -8
0 -15 -9 -15 -20 0 -11 -7 -20 -15 -20 -9 0 -15 9 -15 25 0 40 55 60 80 29z
m1050 -4 c0 -5 -4 -10 -9 -10 -6 0 -13 5 -16 10 -3 6 1 10 9 10 9 0 16 -4 16
-10z m183 -67 c9 3 18 -1 21 -9 7 -19 -20 -30 -37 -15 -8 6 -47 9 -105 6 -78
-4 -90 -2 -85 10 4 12 9 13 19 4 8 -6 14 -7 14 -2 0 5 30 10 67 11 36 1 69 4
72 7 2 3 8 0 12 -6 4 -7 14 -9 22 -6z m87 3 c0 -8 -7 -13 -16 -12 -26 2 -28
-22 -2 -27 l23 -4 -23 -2 c-24 -1 -38 20 -28 44 7 19 46 20 46 1z m-83 -101
c20 -8 33 -18 30 -22 -4 -3 -13 0 -21 6 -10 8 -40 11 -86 9 -67 -3 -95 6 -47
15 47 9 89 6 124 -8z m-162 -33 c-8 -8 -25 10 -19 20 4 6 9 5 15 -3 4 -7 6
-15 4 -17z m16 -26 c-9 -11 -8 -15 6 -20 11 -5 23 0 34 15 11 15 18 18 23 10
6 -9 11 -9 21 -1 10 8 17 5 29 -12 l16 -22 0 22 c0 17 6 22 24 22 27 0 42 -15
26 -25 -5 -3 -10 -1 -10 4 0 6 -6 11 -14 11 -19 0 -9 -37 13 -44 9 -3 -2 -3
-24 0 -22 3 -43 11 -47 17 -5 8 -9 5 -14 -7 -7 -18 -8 -18 -20 -1 -11 15 -14
16 -19 4 -3 -9 -21 -16 -43 -17 -27 -1 -32 1 -17 7 18 7 18 8 1 18 -21 12 -14
33 11 33 12 0 13 -3 4 -14z m42 -113 c-13 -2 -33 -2 -45 0 -13 2 -3 4 22 4 25
0 35 -2 23 -4z m153 -18 c1 -14 0 -15 -3 -3 -3 13 -18 18 -56 21 l-52 4 55 -1
c48 -1 55 -4 56 -21z m-45 -15 c10 -6 19 -16 19 -22 0 -7 12 -24 26 -39 22
-23 24 -31 16 -60 -4 -19 -12 -32 -16 -29 -5 3 -12 -5 -17 -17 -11 -31 -35
-29 -48 5 l-11 27 6 -29 c3 -18 0 -32 -8 -37 -20 -13 -28 -11 -38 14 -6 16 -9
17 -9 5 -1 -23 -17 -31 -38 -19 -10 5 -26 12 -36 15 -14 4 -17 12 -12 28 5 18
4 20 -4 8 -14 -20 -28 -4 -35 40 -5 32 -2 38 45 78 43 36 56 42 95 42 25 0 54
-5 65 -10z m-216 -50 c-23 -25 -27 -35 -22 -66 4 -20 15 -47 27 -59 24 -26 27
-43 3 -24 -20 17 -43 71 -43 102 0 13 11 34 25 47 14 13 25 31 26 39 0 12 2
12 6 3 3 -8 -7 -27 -22 -42z m325 -44 c0 -26 -6 -18 -14 19 -5 22 -4 26 4 15
5 -8 10 -24 10 -34z m-19 -65 c-17 -31 -70 -70 -104 -76 -18 -4 -53 -5 -77 -2
-42 3 -41 4 13 5 66 2 128 29 153 67 19 29 29 33 15 6z m-241 -61 c8 -5 11
-10 5 -10 -5 0 -17 5 -25 10 -8 5 -10 10 -5 10 6 0 17 -5 25 -10z m1257 -282
c-3 -8 -6 -5 -6 6 -1 11 2 17 5 13 3 -3 4 -12 1 -19z m670 -200 c-3 -8 -6 -5
-6 6 -1 11 2 17 5 13 3 -3 4 -12 1 -19z m4 -81 c1 -26 -1 -50 -4 -54 -4 -3 -7
20 -7 52 0 69 9 70 11 2z m-3694 -9 c-3 -8 -6 -5 -6 6 -1 11 2 17 5 13 3 -3 4
-12 1 -19z m2482 -39 c12 -13 21 -17 26 -10 3 6 22 11 41 11 27 0 34 -4 34
-20 0 -22 1 -23 25 -14 13 5 14 9 4 15 -19 12 -4 22 20 14 12 -3 21 -15 21
-26 0 -23 16 -25 28 -3 10 18 32 11 32 -11 0 -15 6 -17 103 -39 77 -18 114
-35 141 -65 34 -37 9 -41 -144 -20 -220 29 -447 57 -521 64 l-67 6 -6 51 c-4
28 -4 53 -1 56 3 3 42 1 88 -5 67 -8 84 -8 92 3 15 21 62 17 84 -7z m-1219 -9
c15 20 21 22 33 11 11 -8 41 -11 94 -9 l78 3 0 -50 0 -50 -80 -8 c-44 -4 -159
-19 -255 -33 -96 -14 -209 -30 -250 -35 -41 -5 -94 -11 -117 -15 -48 -7 -58 9
-25 39 22 20 134 67 159 67 40 0 92 21 87 35 -7 16 32 40 41 25 3 -5 0 -10 -7
-10 -9 0 -9 -3 2 -10 23 -15 33 -12 27 10 -6 23 3 26 21 8 9 -9 15 -8 25 7 13
17 14 17 20 -4 4 -15 10 -19 22 -14 17 6 17 7 1 18 -15 12 -15 13 1 19 11 4
22 1 29 -8 13 -18 29 -22 18 -5 -3 6 0 15 7 20 10 6 20 2 32 -13 l19 -22 18
24z m-1273 -62 c-3 -7 -5 -2 -5 12 0 14 2 19 5 13 2 -7 2 -19 0 -25z m3524
-19 c8 -16 8 -47 -1 -122 -6 -56 -14 -105 -16 -109 -16 -25 -149 -36 -178 -15
-23 17 -35 80 -36 185 l0 82 110 0 c101 0 110 -2 121 -21z m-3112 -15 c1 -1 0
-51 -4 -110 -10 -137 -19 -150 -108 -140 -48 5 -64 11 -83 33 -12 14 -22 33
-22 42 1 9 -2 41 -5 71 -10 82 4 104 73 110 51 5 140 1 149 -6z m3288 -31 c-3
-10 -5 -4 -5 12 0 17 2 24 5 18 2 -7 2 -21 0 -30z m6 -53 c3 -11 1 -20 -4 -20
-5 0 -9 9 -9 20 0 11 2 20 4 20 2 0 6 -9 9 -20z m-775 -15 c2 -2 -8 -11 -23
-21 -19 -12 -29 -14 -37 -6 -19 19 -2 41 29 36 15 -3 29 -7 31 -9z m-2491 -77
c-1 -68 3 -91 22 -126 21 -40 21 -45 7 -67 -9 -14 -26 -29 -37 -36 l-22 -11 7
118 c7 115 16 204 21 204 1 0 2 -37 2 -82z m413 54 c0 -29 -11 -33 -41 -15
-38 23 -36 33 6 33 27 0 35 -4 35 -18z m-838 -27 c3 -14 1 -28 -3 -31 -5 -3
-9 9 -9 25 0 38 6 40 12 6z m3273 -167 c4 -45 3 -78 -2 -78 -5 0 -21 12 -35
28 -26 26 -26 28 -11 67 9 22 18 69 21 105 l5 65 8 -54 c4 -30 10 -89 14 -133z
m-1918 120 c-3 -7 -5 -2 -5 12 0 14 2 19 5 13 2 -7 2 -19 0 -25z m-469 -55
c65 -42 155 -102 202 -134 100 -67 253 -159 293 -177 26 -11 27 -14 27 -88 0
-88 3 -88 -85 1 -58 58 -273 236 -408 335 -51 38 -98 75 -106 83 -33 35 -51
57 -45 57 3 0 58 -35 122 -77z m2799 -100 c-2 -32 -3 -8 -3 52 0 61 1 87 3 58
2 -29 2 -78 0 -110z m-1779 94 c-4 -31 -53 -37 -61 -8 -5 20 -27 30 -27 14 0
-5 -4 -14 -9 -22 -8 -12 -12 -12 -25 -2 -11 9 -16 10 -16 2 0 -6 -9 -11 -20
-11 -14 0 -20 7 -20 23 0 21 4 22 91 24 88 2 90 2 87 -20z m46 7 c9 -23 8 -24
-14 -24 -11 0 -20 2 -20 4 0 12 13 36 20 36 4 0 11 -7 14 -16z m1012 -52 c-3
-3 -15 3 -26 13 l-21 19 23 18 c23 17 23 17 26 -13 2 -17 1 -33 -2 -37z
m-2212 29 c15 -16 15 -19 1 -31 -18 -15 -21 -13 -30 23 -8 31 4 35 29 8z
m-747 -93 c-2 -13 -4 -5 -4 17 -1 22 1 32 4 23 2 -10 2 -28 0 -40z m1898 -53
c25 -38 45 -73 45 -77 0 -4 -52 -8 -115 -8 -63 0 -115 2 -115 4 0 5 46 83 88
151 29 45 20 51 97 -70z m80 -126 c13 -20 -8 -24 -151 -27 -141 -4 -144 -3
-144 17 0 20 5 21 144 21 92 0 147 -4 151 -11z m-138 -236 c-3 -3 -11 -2 -17
2 -9 6 -9 10 1 16 14 8 27 -7 16 -18z m17 -37 c-3 -8 -12 -12 -21 -9 -12 5
-12 7 -1 14 20 13 28 11 22 -5z m12 -21 c-3 -20 -16 -31 -16 -13 0 13 8 28 16
28 1 0 1 -7 0 -15z m-26 -18 c0 -14 6 -24 15 -24 8 0 15 5 15 10 0 6 2 8 5 5
10 -10 -8 -39 -21 -34 -8 3 -14 1 -14 -4 0 -15 -36 -12 -49 4 -13 16 2 32 19
21 6 -3 10 -2 10 4 0 5 -5 11 -12 13 -15 5 -1 28 18 28 8 0 14 -10 14 -23z
m95 -404 c3 -10 17 -31 31 -48 l26 -30 -16 32 c-13 26 -13 32 -1 36 7 3 19 -1
25 -9 8 -8 8 -14 2 -14 -12 0 -3 -42 11 -52 15 -10 34 1 40 23 6 23 32 25 41
4 3 -8 1 -15 -5 -15 -6 0 -7 -5 -3 -11 4 -8 9 -8 17 0 15 15 27 14 27 -4 0 -8
-5 -15 -12 -15 -6 0 -8 -3 -4 -7 4 -4 15 -8 24 -8 9 0 17 -7 16 -16 -1 -9 5
-16 12 -16 14 0 10 11 -13 38 -17 20 -7 49 18 49 16 0 19 -8 19 -56 0 -34 4
-53 10 -49 6 3 11 -4 11 -17 1 -13 3 -32 5 -43 2 -11 8 -42 13 -70 5 -27 14
-75 20 -105 7 -30 14 -66 17 -79 l5 -24 -73 8 c-40 4 -82 7 -93 8 -31 0 -116
25 -142 42 -13 9 -23 23 -23 33 0 13 -2 14 -9 3 -7 -11 -12 -8 -26 12 -14 21
-15 33 -6 59 5 18 11 106 12 196 2 150 9 189 24 145z m-183 -25 c2 -13 1 -68
-2 -123 -4 -68 -2 -115 7 -146 9 -32 10 -59 4 -85 -5 -22 -9 -33 -10 -26 -1 6
-6 12 -12 12 -5 0 -7 -4 -4 -10 3 -5 2 -10 -2 -10 -5 0 -9 -10 -10 -21 -2 -21
-1 -21 12 -3 16 21 20 8 6 -15 -5 -8 -16 -11 -26 -7 -10 3 -29 -2 -45 -14 -31
-22 -50 -26 -50 -9 0 7 -9 6 -23 -4 -15 -10 -54 -17 -103 -19 l-79 -3 -3 35
c-2 19 1 51 7 70 6 19 20 78 31 130 18 81 19 101 9 142 -15 55 -1 83 38 75 13
-2 23 -1 23 3 0 7 40 3 70 -7 11 -3 9 -8 -10 -19 -16 -10 -18 -13 -5 -8 11 3
25 7 32 7 6 0 9 6 6 14 -5 14 5 20 51 27 15 3 38 12 50 20 29 20 33 20 38 -6z
m848 -243 c19 -14 72 -50 116 -80 45 -31 95 -69 110 -85 31 -32 49 -37 57 -17
8 19 6 -14 -2 -43 l-8 -25 -18 30 c-20 34 -77 74 -156 109 -30 13 -81 47 -114
75 -33 28 -85 70 -115 93 -71 54 -110 90 -110 100 0 7 82 -46 240 -157z
m-1300 126 c-5 -11 -31 -37 -57 -58 -26 -21 -55 -45 -63 -54 -32 -34 -149
-119 -163 -119 -8 0 -20 -7 -27 -15 -7 -8 -21 -15 -31 -15 -10 0 -45 -27 -78
-60 -33 -34 -62 -56 -66 -50 -3 5 -2 16 2 23 11 19 81 80 124 108 20 13 110
77 200 142 89 64 164 117 166 117 2 0 -1 -9 -7 -19z m1330 -371 c12 -23 13
-50 1 -50 -8 0 -111 135 -111 146 0 10 100 -78 110 -96z m-1500 51 c-6 -12
-15 -21 -19 -21 -5 0 -11 -9 -14 -21 -3 -12 -10 -18 -15 -15 -5 3 -12 -3 -15
-14 -3 -11 -10 -20 -16 -20 -18 0 1 34 43 75 45 44 54 48 36 16z m354 -134
c12 12 6 -30 -11 -77 -12 -35 -22 -48 -35 -47 -10 1 -20 7 -22 14 -3 7 -15 13
-26 13 -20 0 -21 4 -14 48 9 60 27 74 70 56 17 -7 34 -10 38 -7z m1411 -28 c4
-27 5 -52 2 -55 -10 -11 -58 21 -63 42 -7 29 12 64 35 64 15 0 21 -10 26 -51z
m-2034 32 c1 8 4 3 8 -11 5 -14 3 -31 -2 -38 -8 -10 -7 -20 2 -34 14 -23 7
-36 -11 -20 -7 5 -24 12 -38 14 -22 3 -25 7 -22 38 4 41 28 66 49 49 10 -9 13
-8 14 2z m1428 -28 c17 -59 14 -73 -13 -73 -18 0 -27 -9 -38 -37 l-14 -38 -16
60 c-9 33 -19 69 -23 80 -5 16 0 23 22 32 54 21 71 16 82 -24z m-132 -70 c-3
-10 -5 -4 -5 12 0 17 2 24 5 18 2 -7 2 -21 0 -30z m-131 -36 c67 -35 161 -113
207 -172 57 -74 85 -135 108 -233 12 -48 25 -92 31 -99 5 -7 7 -17 3 -22 -3
-6 -1 -64 5 -129 6 -72 7 -128 2 -143 -7 -17 -11 5 -14 86 -7 134 -45 265 -85
288 -8 5 -11 17 -7 33 4 16 2 24 -6 24 -9 0 -9 4 -2 13 10 13 -1 56 -15 58
-62 6 -100 36 -105 83 -2 26 -11 35 -48 53 -25 12 -90 29 -145 39 -150 25
-292 9 -407 -46 -45 -21 -53 -33 -49 -68 4 -23 -30 -52 -60 -52 -33 0 -41 -11
-44 -57 -1 -18 -10 -39 -19 -46 -9 -7 -31 -57 -48 -112 -29 -93 -31 -114 -38
-305 -6 -186 -7 -194 -10 -90 -6 180 -2 287 15 398 30 189 72 277 184 383 139
133 187 150 382 145 100 -3 122 -7 165 -29z m-641 -35 c-5 -26 -11 -30 -52
-36 -25 -3 -137 -6 -249 -6 l-204 0 0 35 0 35 253 2 c138 2 254 2 255 1 2 -1
1 -15 -3 -31z m789 22 c3 -8 2 -12 -4 -9 -6 3 -10 10 -10 16 0 14 7 11 14 -7z
m616 -19 l0 -35 -245 0 c-231 0 -245 1 -255 19 -27 52 -29 51 245 51 l255 0 0
-35z m-1343 3 c1 -12 -1 -25 -6 -28 -4 -3 -26 -31 -50 -62 -45 -63 -52 -69
-44 -38 3 11 10 20 15 20 5 0 7 4 3 10 -3 5 6 16 19 25 22 15 37 40 42 70 1 6
2 13 3 18 2 17 17 5 18 -15z m831 -60 c10 2 13 -2 9 -12 -4 -11 -1 -13 10 -9
11 4 14 2 11 -8 -3 -8 -1 -22 4 -31 18 -35 -8 -16 -49 37 -43 54 -61 92 -21
45 11 -14 27 -24 36 -22z m331 -75 c0 -10 -3 -13 -5 -6 -3 7 -20 10 -42 8 -35
-4 -35 -4 -7 4 47 13 55 12 54 -6z m-1569 3 c0 -3 -4 -8 -10 -11 -5 -3 -10 -1
-10 4 0 6 5 11 10 11 6 0 10 -2 10 -4z m77 -2 c-3 -3 -12 -4 -19 -1 -8 3 -5 6
6 6 11 1 17 -2 13 -5z m4 -103 c0 -37 2 -42 10 -26 7 15 8 8 4 -25 -2 -25 -7
-96 -11 -157 -4 -62 -10 -113 -15 -113 -5 0 -10 -28 -10 -62 -2 -62 -2 -62 -8
-17 -7 52 -4 409 4 417 3 3 5 -20 5 -51 0 -33 4 -57 10 -57 7 0 9 21 4 63 -8
73 -9 77 -34 77 -18 0 -19 -10 -14 -272 6 -309 2 -353 -32 -403 -13 -20 -24
-42 -24 -49 0 -18 -43 -46 -70 -46 -11 0 -20 -4 -20 -10 0 -5 7 -6 17 -3 11 4
14 3 9 -5 -4 -7 -11 -12 -16 -12 -17 0 -41 34 -37 51 3 11 1 19 -4 19 -5 0 -9
9 -9 19 0 11 -10 27 -22 35 -21 15 -22 23 -21 133 2 176 7 227 21 236 6 4 12
16 12 26 0 21 23 82 47 126 9 16 19 46 23 65 3 23 13 38 28 45 12 5 22 13 22
17 0 20 5 24 44 33 64 17 86 3 87 -54z m229 65 c0 -3 -4 -8 -10 -11 -5 -3 -10
-1 -10 4 0 6 5 11 10 11 6 0 10 -2 10 -4z m1333 -3 c23 -3 36 -10 34 -18 -8
-19 27 -82 42 -77 11 4 13 -2 8 -26 -5 -27 -3 -32 23 -44 24 -10 30 -19 32
-48 0 -19 2 -39 3 -45 7 -45 15 -175 15 -240 0 -44 0 -97 0 -117 1 -21 -4 -38
-10 -38 -5 0 -19 -9 -30 -20 l-20 -20 25 0 c36 0 31 -18 -10 -37 -24 -11 -35
-24 -35 -38 0 -20 -31 -55 -50 -55 -5 0 -12 12 -16 28 -10 45 -13 52 -24 52
-5 0 -10 -7 -10 -15 0 -8 -4 -15 -10 -15 -16 0 -12 27 5 34 8 3 15 11 14 18 0
10 -2 10 -6 0 -4 -10 -8 -10 -19 -1 -10 8 -11 15 -4 24 8 10 5 24 -10 51 -18
35 -20 57 -21 254 -1 162 -4 199 -10 151 -8 -59 -19 -94 -19 -58 0 8 -8 23
-17 32 -12 13 -17 38 -19 102 -1 55 -6 88 -14 93 -7 5 -11 19 -8 34 3 15 1 26
-6 27 -6 1 3 5 19 9 39 10 100 11 148 3z m-1533 -23 c0 -11 -4 -20 -9 -20 -6
0 -9 9 -8 20 1 11 5 20 9 20 4 0 8 -9 8 -20z m670 -80 c0 -11 -4 -20 -9 -20
-5 0 -7 9 -4 20 3 11 7 20 9 20 2 0 4 -9 4 -20z m366 -3 c49 -53 61 -82 68
-157 7 -68 5 -78 -15 -103 -15 -20 -29 -27 -48 -25 -22 3 -27 9 -33 43 -9 54
-10 265 0 265 4 0 16 -10 28 -23z m-690 -11 c-4 -18 -1 -28 11 -34 14 -8 15
-20 10 -78 -4 -38 -12 -71 -18 -73 -8 -2 -7 -7 2 -13 11 -8 12 -11 1 -15 -10
-4 -9 -8 3 -17 26 -19 9 -46 -28 -43 -23 2 -35 11 -49 35 -10 19 -16 37 -14
41 3 4 6 36 7 72 1 62 11 88 47 130 23 26 35 24 28 -5z m411 -8 c-3 -8 -6 -5
-6 6 -1 11 2 17 5 13 3 -3 4 -12 1 -19z m-390 -10 c-3 -8 -6 -5 -6 6 -1 11 2
17 5 13 3 -3 4 -12 1 -19z m1536 -273 c14 -33 32 -77 41 -97 23 -54 13 -47
-21 15 -56 99 -76 190 -65 295 l7 67 6 -110 c5 -83 13 -125 32 -170z m-2383
100 c-4 -38 -13 -83 -20 -100 -20 -51 -83 -175 -87 -171 -2 2 12 40 32 85 41
94 64 189 66 276 1 58 2 59 9 20 5 -22 4 -71 0 -110z m-51 21 c-9 -8 -10 -7
-5 7 3 10 7 26 7 35 1 9 4 6 6 -7 3 -13 -1 -28 -8 -35z m1252 30 c-9 -11 -9
-15 0 -18 20 -7 0 -28 -26 -28 -20 0 -23 4 -20 28 2 15 4 28 4 30 1 1 13 2 27
2 22 0 24 -3 15 -14z m1199 -21 c0 -5 -5 -3 -10 5 -5 8 -10 20 -10 25 0 6 5 3
10 -5 5 -8 10 -19 10 -25z m25 -85 c5 -25 4 -32 -4 -25 -6 6 -14 26 -17 45 -5
24 -3 32 4 25 5 -5 13 -26 17 -45z m-2489 -5 c-4 -14 -11 -25 -16 -25 -5 0 -7
7 -5 15 3 8 7 22 10 31 9 26 18 8 11 -21z m1971 -47 c-3 -8 -6 -5 -6 6 -1 11
2 17 5 13 3 -3 4 -12 1 -19z m-2000 -45 c-3 -10 -5 -4 -5 12 0 17 2 24 5 18 2
-7 2 -21 0 -30z m2013 2 c0 -8 -4 -15 -10 -15 -5 0 -7 7 -4 15 4 8 8 15 10 15
2 0 4 -7 4 -15z m-1100 -39 c0 -8 6 -16 13 -19 8 -3 6 -7 -6 -12 -12 -5 -24
-1 -38 13 -24 27 -24 27 6 30 16 1 25 -3 25 -12z m800 -12 c0 -18 -8 -18 -26
0 -19 20 -18 25 6 19 11 -3 20 -12 20 -19z m-872 -1 c-2 -9 -9 -18 -17 -21 -8
-3 -11 0 -7 7 5 7 -1 11 -16 12 -23 1 -23 1 2 9 38 12 42 11 38 -7z m812 3 c0
-8 -7 -16 -15 -20 -8 -3 -15 -1 -15 4 0 6 -8 10 -17 10 -15 0 -16 2 -3 10 22
14 50 12 50 -4z m-543 -12 c-3 -3 -12 -4 -19 -1 -8 3 -5 6 6 6 11 1 17 -2 13
-5z m340 0 c-3 -3 -12 -4 -19 -1 -8 3 -5 6 6 6 11 1 17 -2 13 -5z m51 -85 c-2
-6 -8 -10 -13 -10 -5 0 -11 4 -13 10 -2 6 4 11 13 11 9 0 15 -5 13 -11z m-468
-54 c0 -26 -16 -42 -22 -23 -7 19 3 58 13 52 5 -3 9 -16 9 -29z m69 -43 l-11
-62 -42 6 c-50 8 -50 8 -38 30 6 11 22 18 43 18 30 1 34 5 42 39 14 59 18 38
6 -31z m406 6 l4 -55 -36 -6 c-20 -4 -38 -5 -40 -4 -1 2 -4 21 -6 42 -3 22 -2
32 0 23 3 -12 14 -18 34 -18 29 0 30 2 24 30 -6 27 1 57 11 47 2 -2 6 -29 9
-59z m292 0 c-3 -8 -6 -5 -6 6 -1 11 2 17 5 13 3 -3 4 -12 1 -19z m-897 -18
c5 0 10 -51 13 -112 2 -62 10 -146 16 -186 11 -65 10 -80 -5 -123 -10 -27 -22
-49 -27 -49 -5 0 -6 -7 -3 -16 12 -32 -6 -64 -57 -95 -61 -37 -77 -53 -77 -73
0 -41 -20 -8 -40 65 l-22 81 21 22 c24 25 41 68 41 102 0 13 5 24 11 24 5 0 8
4 5 9 -3 4 -6 31 -7 58 -2 38 3 58 19 81 23 32 28 80 14 142 -12 52 -5 68 31
73 18 2 38 2 45 0 8 -1 17 -3 22 -3z m788 2 c7 -5 14 -41 17 -93 7 -105 8
-114 24 -132 7 -9 12 -38 11 -69 -2 -67 20 -155 48 -194 l22 -30 -19 -59 c-11
-33 -20 -54 -20 -47 -1 10 -6 10 -21 2 -12 -6 -20 -7 -20 -1 0 5 6 12 13 14 7
3 5 6 -5 6 -10 1 -18 5 -18 11 0 5 -12 13 -27 16 -65 17 -94 77 -50 107 22 16
22 16 -9 11 -31 -6 -32 -4 -49 46 -10 31 -15 64 -11 84 4 18 10 96 15 174 5
77 12 145 16 151 7 13 64 14 83 3z m-1051 -69 c-3 -10 -5 -4 -5 12 0 17 2 24
5 18 2 -7 2 -21 0 -30z m1597 10 c-1 -34 -34 -46 -34 -14 0 12 6 21 13 21 8 0
7 4 -3 10 -12 8 -11 10 5 10 16 0 20 -6 19 -27z m-1787 -25 c-3 -8 -6 -5 -6 6
-1 11 2 17 5 13 3 -3 4 -12 1 -19z m1360 -30 c-3 -7 -5 -2 -5 12 0 14 2 19 5
13 2 -7 2 -19 0 -25z m763 -82 c-1 -5 3 -12 8 -15 5 -3 13 -17 16 -31 7 -24 7
-24 -18 5 -26 31 -34 59 -15 53 6 -2 10 -7 9 -12z m-2570 -14 c0 -5 -7 -17
-15 -28 -8 -10 -14 -39 -15 -64 0 -80 40 -357 66 -457 39 -146 60 -254 78
-393 9 -69 23 -174 31 -235 25 -182 37 -306 32 -311 -3 -3 -8 8 -12 25 -5 22
-14 33 -31 37 -13 3 -24 12 -24 19 0 8 -10 15 -22 17 -20 3 -25 13 -35 68 -19
103 -55 500 -50 552 2 26 0 51 -4 55 -9 10 -39 415 -41 563 -1 102 10 160 32
160 5 0 10 -4 10 -8z m637 -24 c-3 -7 -5 -2 -5 12 0 14 2 19 5 13 2 -7 2 -19
0 -25z m1170 0 c-3 -7 -5 -2 -5 12 0 14 2 19 5 13 2 -7 2 -19 0 -25z m-537
-27 c93 3 133 8 139 17 13 21 48 -18 54 -60 5 -31 2 -40 -13 -48 -12 -6 -91
-9 -202 -8 l-183 3 -3 30 c-2 17 4 44 13 62 17 30 19 31 41 16 19 -12 49 -14
154 -12z m1330 -104 c0 -45 -7 -176 -15 -292 -8 -115 -20 -282 -25 -370 -16
-243 -49 -547 -62 -562 -6 -7 -16 -13 -24 -13 -31 0 -84 -70 -84 -111 0 -12
-3 -19 -6 -16 -4 3 -2 48 5 99 6 51 20 170 31 263 31 261 39 313 65 405 59
205 93 422 96 607 1 46 5 80 10 77 5 -3 9 -42 9 -87z m-1271 -66 c-1 -17 -3
-20 -6 -8 -2 9 -8 17 -13 17 -5 0 -7 -7 -3 -16 5 -14 2 -16 -20 -10 -17 4 -31
1 -41 -9 -25 -25 -76 -16 -76 14 0 32 22 42 92 40 66 -2 68 -2 67 -28z m-115
-81 c-6 -6 -21 -6 -39 -1 -30 9 -30 9 10 10 25 1 36 -2 29 -9z m104 -1 c-11
-6 -24 -6 -34 -1 -12 7 -8 9 18 10 26 1 30 -1 16 -9z m-231 -73 c-10 -26 -24
-18 -24 14 0 27 2 29 15 16 8 -8 12 -22 9 -30z m251 -110 l3 -147 -93 3 -93 3
-4 55 -5 55 -5 -55 -6 -55 -67 -3 -67 -3 -7 38 c-4 21 -8 69 -8 108 l-1 70 55
8 c30 4 57 12 58 17 2 6 15 10 28 10 19 0 24 5 24 24 0 23 1 23 93 21 l92 -2
3 -147z m161 97 c14 -51 14 -156 -1 -205 l-11 -39 -61 3 -61 3 -8 60 c-9 64
-4 185 7 204 4 6 33 11 66 11 l59 0 10 -37z m265 -73 c-5 -5 -10 3 -11 18 -1
22 0 24 9 8 6 -10 6 -22 2 -26z m-1613 -140 c31 -61 43 -98 43 -130 1 -41 -1
-45 -23 -45 -13 0 -26 5 -28 12 -3 7 3 9 16 6 23 -6 24 -1 15 45 -5 24 -12 32
-33 34 -16 2 -27 10 -29 21 -3 16 -1 17 17 8 19 -11 20 -10 11 13 -5 14 -20
47 -35 75 -14 28 -25 56 -25 63 0 24 28 -16 71 -102z m1554 -15 l0 -109 -44
-4 c-24 -2 -63 -1 -86 3 -40 5 -43 8 -47 43 -2 20 -2 66 1 102 l6 65 70 6
c109 9 100 18 100 -106z m-735 -5 l0 -110 -84 0 c-76 0 -85 2 -91 20 -5 16 -9
138 -6 188 1 9 26 12 91 12 l90 0 0 -110z m1481 69 c-6 -24 -9 -28 -10 -12 -1
24 9 56 16 50 2 -3 0 -20 -6 -38z m-91 -139 c11 -11 20 -30 20 -42 1 -22 1
-23 15 -4 8 11 15 15 15 9 0 -7 -4 -15 -10 -18 -5 -3 -10 -19 -10 -36 0 -26
-3 -29 -32 -29 -45 0 -68 25 -68 75 0 63 31 84 70 45z m-1331 -9 c16 -10 6
-31 -14 -31 -17 0 -28 17 -20 30 8 12 16 12 34 1z m465 3 c25 -9 19 -24 -9
-24 -24 0 -32 10 -18 23 8 8 8 8 27 1z m-279 -24 c10 -11 24 -20 31 -20 8 0
19 9 26 20 12 19 60 29 56 13 0 -5 3 -17 7 -27 7 -17 -3 -124 -20 -211 -13
-62 -43 -71 -91 -25 -25 23 -35 44 -47 102 -8 40 -14 88 -12 106 2 17 -1 35
-6 38 -17 10 -9 24 14 24 13 0 32 -9 42 -20z m-902 -308 c65 -44 75 -92 18
-92 -21 0 -37 9 -55 33 -14 17 -26 26 -26 19 0 -7 -5 -10 -10 -7 -6 3 -7 17
-4 29 4 16 0 25 -10 29 -9 4 -16 11 -16 17 0 18 60 2 103 -28z m1998 2 c12
-15 11 -16 -7 -10 -16 5 -25 0 -38 -18 -23 -36 -21 -66 4 -59 11 3 20 0 20 -6
0 -6 -9 -11 -19 -11 -17 0 -21 -10 -27 -72 -7 -66 -8 -70 -16 -41 -14 53 6
180 33 209 27 28 32 29 50 8z m-2031 -147 c0 -5 -4 -5 -10 -2 -5 3 -10 14 -10
23 0 15 2 15 10 2 5 -8 10 -19 10 -23z m1413 16 c3 -5 -8 -8 -23 -8 -15 0 -26
3 -23 8 2 4 13 7 23 7 10 0 21 -3 23 -7z m-764 -57 c-2 -2 -13 8 -23 22 l-19
27 24 -22 c12 -12 21 -24 18 -27z m-24 -6 c21 -40 18 -50 -5 -20 -12 15 -18
18 -14 8 3 -10 1 -18 -5 -18 -6 0 -11 6 -12 13 0 6 -4 3 -9 -8 -7 -18 -8 -17
-15 9 -5 20 -4 31 6 37 24 15 38 10 54 -21z m-601 -25 c5 -20 4 -27 -3 -20 -5
6 -13 24 -17 40 -4 20 -3 27 3 20 6 -5 14 -23 17 -40z m1296 25 c-6 -11 -13
-20 -16 -20 -2 0 0 9 6 20 6 11 13 20 16 20 2 0 0 -9 -6 -20z m54 4 c9 -8 16
-11 16 -5 0 6 4 11 8 11 10 0 9 -30 -2 -48 -7 -12 -58 -17 -69 -6 -7 8 13 64
23 64 5 0 16 -7 24 -16z m-717 -51 c-3 -10 -5 -4 -5 12 0 17 2 24 5 18 2 -7 2
-21 0 -30z m697 -33 c10 0 17 -3 13 -6 -10 -10 -57 5 -57 18 0 9 3 9 12 0 7
-7 21 -12 32 -12z m-709 0 c-3 -5 -16 -10 -28 -9 -20 1 -20 2 3 9 14 4 26 8
28 9 2 1 0 -3 -3 -9z m621 -34 c6 -17 -12 -56 -26 -56 -6 0 -8 10 -6 23 3 12
5 28 5 35 1 17 20 15 27 -2z m-545 -36 c13 -44 6 -62 -15 -39 -15 14 -19 31
-17 62 2 31 20 18 32 -23z m29 -18 c0 -15 -2 -15 -10 -2 -13 20 -13 33 0 25 6
-3 10 -14 10 -23z m10 -80 c0 -13 5 -33 11 -44 17 -32 38 -128 27 -128 -5 0
-10 6 -12 13 -2 6 -11 37 -19 67 -22 75 -32 150 -18 130 6 -8 11 -25 11 -38z
m425 -11 c-4 -24 -2 -42 4 -46 14 -8 14 -75 1 -75 -5 0 -10 -11 -10 -25 0 -14
-4 -25 -9 -25 -9 0 -6 184 4 200 13 20 17 9 10 -29z m-1245 -563 c74 -242 111
-411 97 -451 -7 -18 -12 -34 -14 -35 -1 -2 -11 -1 -22 3 -14 4 -21 15 -21 31
0 13 -4 43 -10 66 -5 24 -24 117 -41 208 -16 91 -36 194 -44 230 -7 36 -16 90
-19 120 -6 55 -6 55 9 23 8 -18 38 -106 65 -195z m1991 196 c17 -32 15 -51
-17 -179 -27 -107 -44 -164 -55 -180 -3 -5 -9 -23 -13 -40 -4 -16 -18 -66 -31
-110 -13 -44 -38 -127 -55 -185 -17 -58 -38 -129 -47 -157 -9 -29 -19 -53 -24
-53 -7 0 -89 101 -147 180 -11 15 -6 38 33 156 68 203 111 296 192 419 82 124
106 155 122 155 6 0 11 5 11 10 0 19 17 10 31 -16z m-1287 -7 c7 -11 8 -22 1
-33 -17 -27 -30 -20 -33 20 -4 40 11 46 32 13z m621 -8 c-4 -5 8 -9 24 -9 17
0 31 -4 31 -10 0 -5 -16 -10 -35 -10 -31 0 -35 3 -35 26 0 14 4 23 10 19 6 -4
8 -11 5 -16z m-1119 -22 c59 -63 197 -296 219 -368 4 -13 30 -86 57 -162 l50
-139 -29 -36 c-16 -21 -52 -66 -79 -101 l-48 -65 -12 40 c-6 21 -37 127 -69
234 -31 107 -60 201 -65 210 -15 28 -90 311 -90 338 0 27 24 72 38 72 4 0 16
-10 28 -23z m523 -43 c-18 -19 -19 -24 -7 -24 9 0 21 7 28 15 7 8 17 12 22 9
5 -3 0 -16 -11 -28 -12 -12 -21 -32 -21 -44 0 -26 -25 -29 -38 -4 -6 9 -13 32
-17 50 -5 24 -3 32 8 32 8 0 20 7 27 15 7 8 17 12 22 9 5 -3 -1 -17 -13 -30z
m614 -16 c-4 -22 -3 -29 5 -24 7 4 12 16 12 27 0 10 5 19 10 19 12 0 12 0 -1
-39 -16 -46 -79 -57 -79 -13 0 24 28 62 45 62 11 0 13 -8 8 -32z m7 -102 c0
-59 -69 -75 -81 -19 -8 40 -5 43 43 43 34 0 38 -3 38 -24z m-610 -56 c0 -32
17 -32 24 0 3 17 12 30 20 30 19 0 39 -35 33 -58 -4 -14 -6 -13 -12 6 -10 30
-25 28 -25 -3 0 -37 -28 -31 -46 10 -17 41 -17 48 -4 40 6 -3 10 -15 10 -25z
m585 -30 c-3 -5 -14 -10 -24 -10 -18 0 -41 -18 -41 -32 0 -4 11 -8 25 -8 29 0
34 -15 8 -22 -43 -11 -56 19 -27 60 15 21 72 33 59 12z m-511 -62 c24 -33 20
-58 -7 -58 -24 0 -47 33 -47 65 0 23 37 18 54 -7z m485 -35 c0 -5 -4 -17 -9
-28 -7 -16 -9 -17 -9 -3 -1 11 -7 15 -23 11 -22 -4 -23 -4 -4 11 21 17 47 21
45 9z m-461 -55 c17 -17 15 -68 -2 -68 -8 0 -18 5 -21 10 -3 6 1 10 10 10 25
0 14 34 -13 38 -12 2 -22 8 -22 13 0 13 34 11 48 -3z m432 -18 c-19 -12 -30
-12 -30 -1 0 10 31 20 40 14 2 -2 -2 -8 -10 -13z m-4 -45 c-17 -25 -36 -33
-36 -15 0 6 6 10 14 10 7 0 16 10 19 22 4 12 9 19 13 15 4 -3 -1 -18 -10 -32z
m-406 -38 c0 -7 -9 -13 -20 -14 -11 -1 -20 4 -20 13 0 8 9 14 20 14 11 0 20
-6 20 -13z m394 -6 c3 -5 -1 -11 -9 -14 -9 -4 -12 -1 -8 9 6 16 10 17 17 5z
m-391 -91 l6 -35 -14 30 c-16 34 -20 64 -6 50 4 -6 11 -26 14 -45z m-339 -133
c-11 -13 -55 -71 -98 -128 -75 -98 -171 -215 -204 -249 -21 -20 4 14 128 175
159 209 182 236 187 231 3 -3 -3 -16 -13 -29z m1099 -15 c184 -231 259 -322
267 -327 6 -3 10 -12 10 -18 -1 -7 -10 -1 -21 13 -12 14 -45 52 -74 85 -30 33
-73 86 -97 117 -24 31 -65 84 -91 117 -27 34 -45 61 -40 61 4 0 25 -22 46 -48z
m-769 -14 c1 -30 -10 -44 -119 -147 -66 -62 -174 -159 -240 -214 -66 -55 -144
-122 -174 -150 -76 -70 -145 -97 -139 -55 2 15 15 26 47 36 37 12 89 60 324
299 178 179 284 280 290 274 5 -5 10 -25 11 -43z m615 -144 c105 -108 194
-194 198 -191 3 4 -29 41 -71 84 -55 57 -76 85 -76 104 0 35 8 40 39 25 35
-18 56 -43 103 -119 41 -67 49 -107 21 -107 -12 0 4 -22 47 -66 69 -70 143
-124 171 -124 20 0 34 -29 21 -42 -19 -19 -82 22 -228 146 -82 70 -169 146
-194 170 -25 23 -91 85 -147 136 -68 62 -103 101 -103 114 0 30 11 66 20 66 4
0 93 -88 199 -196z m-1281 136 c2 -14 8 -37 14 -52 5 -15 7 -43 4 -62 -5 -27
-13 -37 -37 -45 -27 -9 -33 -7 -54 13 -34 35 -40 69 -20 114 26 54 35 63 64
60 19 -2 27 -10 29 -28z m1013 -23 c-8 -8 -11 -3 -11 19 1 25 2 27 11 11 8
-14 8 -22 0 -30z m-292 -51 c1 -5 -5 -3 -13 4 -8 6 -12 19 -9 27 6 14 8 14 14
-3 4 -10 8 -23 8 -28z m305 -44 c-4 -9 -6 -21 -5 -25 1 -5 -3 -6 -9 -2 -5 3
-13 -1 -16 -9 -3 -9 -10 -16 -16 -16 -5 0 -1 12 10 28 11 15 23 38 28 52 6 20
9 22 12 7 2 -10 0 -26 -4 -35z m843 6 c-3 -7 -5 -2 -5 12 0 14 2 19 5 13 2 -7
2 -19 0 -25z m-1993 -15 c-3 -21 -11 -108 -18 -193 -8 -85 -14 -135 -14 -110
-2 60 16 297 23 321 10 32 16 21 9 -18z m536 -6 c0 -15 -28 -50 -80 -102 -44
-44 -80 -73 -80 -66 0 22 71 132 108 167 38 36 52 36 52 1z m310 -13 c0 -8 -4
-12 -10 -9 -5 3 -10 10 -10 16 0 5 5 9 10 9 6 0 10 -7 10 -16z m20 -78 c0 -6
-7 -2 -15 8 -8 11 -15 25 -15 30 0 6 7 2 15 -8 8 -11 15 -25 15 -30z m280 19
c0 -14 -4 -25 -10 -25 -11 0 -14 33 -3 43 11 11 13 8 13 -18z m867 -590 c0
-102 -5 -19 -11 210 -6 209 -9 385 -6 390 6 13 18 -379 17 -600z m-1397 376
c13 -37 13 -43 0 -51 -19 -13 -120 -13 -120 -1 0 18 45 79 65 89 30 16 39 10
55 -37z m815 40 c-3 -5 4 -12 15 -16 11 -4 28 -17 36 -31 9 -13 20 -22 24 -19
5 3 6 -3 3 -14 -4 -16 -15 -19 -74 -19 -77 0 -77 1 -53 65 12 30 23 43 36 43
11 0 17 -4 13 -9z m-2298 -83 c-3 -7 -5 -2 -5 12 0 14 2 19 5 13 2 -7 2 -19 0
-25z m679 -13 c27 -7 34 -40 34 -150 l0 -83 -32 -6 c-18 -3 -64 -3 -103 -1
-38 3 -135 7 -214 9 -100 3 -146 8 -151 16 -4 7 -13 9 -19 6 -8 -5 -10 5 -7
31 6 61 42 147 57 137 5 -3 22 4 38 15 25 18 52 22 187 29 160 9 171 9 210 -3z
m2642 -5 c144 -11 173 -22 190 -68 27 -70 25 -186 -2 -163 -7 6 -15 9 -17 7
-2 -3 -108 -7 -235 -10 -285 -8 -270 -14 -266 115 2 52 8 101 13 111 10 19 60
27 134 22 28 -2 110 -9 183 -14z m-1689 -64 c-2 -2 -94 -5 -204 -8 -110 -3
-184 -2 -165 2 35 7 377 13 369 6z m806 -6 c29 -4 -29 -5 -135 -2 -102 2 -187
6 -189 8 -8 7 275 2 324 -6z m-1598 -60 c-1 -22 -17 -28 -17 -7 0 12 9 27 16
27 2 0 2 -9 1 -20z m-850 -22 c-3 -7 -5 -2 -5 12 0 14 2 19 5 13 2 -7 2 -19 0
-25z m855 -158 c0 -122 -4 -166 -14 -149 -6 9 3 301 9 296 3 -4 5 -70 5 -147z
m378 106 c44 -28 50 -35 34 -40 -22 -6 290 2 381 10 57 5 59 4 40 -11 -11 -10
-44 -28 -73 -41 -49 -22 -65 -24 -218 -24 -125 0 -180 4 -222 17 -32 9 -52 17
-47 19 6 2 29 8 53 14 23 6 42 14 42 19 0 4 -18 13 -40 20 -36 10 -39 14 -30
31 14 26 17 26 80 -14z m2507 12 c-3 -8 -6 -5 -6 6 -1 11 2 17 5 13 3 -3 4
-12 1 -19z m-1160 -4 c4 -13 -66 -44 -100 -44 -18 0 -13 6 23 30 46 29 70 34
77 14z m-297 -49 c181 -7 259 -14 295 -24 l30 -8 -30 -14 c-20 -8 -88 -14
-197 -17 -181 -4 -221 3 -318 56 l-45 24 65 -6 c36 -3 126 -8 200 -11z m-939
-157 c0 -10 2 -10 6 0 7 18 24 15 95 -16 34 -16 92 -35 128 -42 66 -14 80 -22
80 -51 0 -15 -18 -18 -127 -23 -71 -4 -142 -8 -160 -10 l-32 -5 -3 80 c-2 43
0 79 5 79 4 0 7 -6 8 -12z m1085 -34 c-3 -26 -6 -60 -6 -75 l0 -29 -83 0 c-46
0 -119 3 -161 7 -75 6 -77 7 -74 31 3 22 11 27 73 42 39 9 95 28 125 42 30 15
72 27 94 27 l39 1 -7 -46z m-518 -132 c114 0 295 -5 402 -11 107 -6 290 -11
406 -11 173 0 213 -3 217 -14 3 -8 3 -17 0 -20 -9 -9 -269 -7 -443 3 -85 6
-204 13 -265 16 -60 4 -132 11 -159 16 -63 12 -349 11 -401 -1 -45 -10 -474
-32 -635 -32 -226 0 -250 1 -250 15 0 11 64 15 333 21 182 3 387 9 455 13
l122 6 1 26 2 26 4 -26 4 -26 207 -1z m109 26 c-3 -8 -6 -5 -6 6 -1 11 2 17 5
13 3 -3 4 -12 1 -19z m-447 -95 c14 -9 30 -22 35 -29 13 -15 71 -24 163 -23
l72 0 0 -30 c0 -16 -4 -32 -9 -36 -16 -9 -189 -35 -311 -45 -137 -12 -254 -34
-333 -62 -42 -15 -69 -19 -104 -14 -72 10 -213 99 -213 136 0 22 41 50 74 50
13 0 46 4 73 10 211 42 320 56 458 59 52 1 77 -4 95 -16z m880 -4 c86 -12 337
-57 362 -65 39 -12 31 -56 -18 -98 -38 -31 -137 -75 -171 -76 -23 0 -111 22
-153 38 -14 5 -106 19 -205 31 -267 32 -245 26 -245 66 0 43 22 65 65 65 19 0
37 5 41 11 3 6 19 18 35 28 32 19 151 19 289 0z m-615 -201 c2 -7 6 -75 7
-151 l3 -137 -50 0 c-106 1 -420 -24 -430 -33 -7 -6 9 -7 45 -3 30 3 170 9
310 12 226 6 388 0 650 -21 l55 -4 -52 13 c-29 8 -153 20 -276 27 l-222 12 3
136 c2 75 5 142 7 149 6 18 50 15 197 -14 146 -28 200 -44 395 -115 111 -41
152 -51 270 -64 136 -16 147 -17 190 -30 21 -6 22 -4 16 43 -4 34 -2 52 7 57
7 4 16 2 20 -5 9 -15 20 -193 13 -220 -8 -29 -21 -25 -26 8 -3 20 -4 18 -3 -8
l1 -35 -125 0 c-112 -1 -270 15 -317 32 -14 4 -15 3 -7 -6 20 -22 166 -40 322
-41 l152 0 0 -66 c0 -71 -17 -106 -39 -80 -7 8 -49 15 -119 20 -150 9 -299 24
-497 49 -184 23 -223 24 -420 12 -86 -5 -159 -4 -217 4 -72 10 -98 9 -151 -3
-35 -8 -104 -18 -153 -21 -49 -3 -136 -10 -194 -15 -58 -5 -168 -14 -245 -20
-77 -7 -156 -15 -175 -19 l-35 -7 -11 71 c-6 38 -9 73 -7 78 2 4 82 8 176 9
l172 2 -160 6 -160 5 2 65 1 65 -10 -63 c-5 -35 -12 -61 -15 -58 -7 7 -4 237
3 248 3 5 12 4 20 -3 11 -9 13 -24 8 -60 l-7 -49 29 9 c16 5 65 14 109 20 44
6 117 15 162 21 46 6 107 22 135 34 106 47 314 109 458 136 117 22 179 24 185
8z m22 -220 c-2 -13 -4 -5 -4 17 -1 22 1 32 4 23 2 -10 2 -28 0 -40z"/>
<path d="M3714 9574 c3 -8 6 -18 6 -20 0 -2 5 -4 10 -4 16 0 11 27 -6 34 -12
5 -15 2 -10 -10z"/>
<path d="M4350 9440 c0 -5 5 -10 11 -10 5 0 7 5 4 10 -3 6 -8 10 -11 10 -2 0
-4 -4 -4 -10z"/>
<path d="M4216 9382 c-2 -4 -1 -14 4 -22 7 -11 12 -12 21 -3 6 6 8 16 5 22 -8
13 -23 14 -30 3z"/>
<path d="M4540 9355 c0 -8 5 -15 10 -15 6 0 10 7 10 15 0 8 -4 15 -10 15 -5 0
-10 -7 -10 -15z"/>
<path d="M4610 9300 c0 -5 5 -10 10 -10 6 0 10 5 10 10 0 6 -4 10 -10 10 -5 0
-10 -4 -10 -10z"/>
<path d="M2770 9290 c0 -5 5 -10 10 -10 6 0 10 5 10 10 0 6 -4 10 -10 10 -5 0
-10 -4 -10 -10z"/>
<path d="M4320 7910 c20 -13 43 -13 35 0 -3 6 -16 10 -28 10 -18 0 -19 -2 -7
-10z"/>
<path d="M4410 7900 c0 -5 9 -10 20 -10 11 0 20 5 20 10 0 6 -9 10 -20 10 -11
0 -20 -4 -20 -10z"/>
<path d="M3700 7390 c-11 -21 -20 -41 -20 -44 0 -4 82 5 89 10 4 3 -38 74 -45
74 -2 0 -13 -18 -24 -40z"/>
<path d="M4005 6410 c-3 -6 1 -7 9 -4 18 7 21 14 7 14 -6 0 -13 -4 -16 -10z"/>
<path d="M3820 6336 c0 -8 4 -17 9 -20 5 -4 7 3 4 14 -6 23 -13 26 -13 6z"/>
<path d="M3810 6210 c-7 -13 -7 -26 -2 -37 7 -12 10 -8 14 21 5 41 3 44 -12
16z"/>
<path d="M3623 6440 c0 -25 2 -35 4 -22 2 12 2 32 0 45 -2 12 -4 2 -4 -23z"/>
<path d="M3420 6441 c0 -5 16 -12 35 -15 20 -4 33 -11 30 -16 -4 -6 1 -7 11
-3 13 5 15 3 9 -8 -7 -12 -5 -12 6 -1 12 11 12 14 -1 22 -8 5 -23 10 -32 10
-10 0 -18 5 -18 10 0 6 -9 10 -20 10 -11 0 -20 -4 -20 -9z"/>
<path d="M3371 5924 c0 -11 3 -14 6 -6 3 7 2 16 -1 19 -3 4 -6 -2 -5 -13z"/>
<path d="M3002 5380 c0 -57 1 -61 9 -32 6 20 6 44 0 65 -8 28 -9 24 -9 -33z"/>
<path d="M3002 5270 c0 -14 2 -19 5 -12 2 6 2 18 0 25 -3 6 -5 1 -5 -13z"/>
<path d="M4483 5605 c4 -8 2 -17 -3 -20 -14 -9 -12 -25 3 -22 8 1 11 -11 9
-40 -1 -24 2 -43 8 -43 5 0 10 21 10 48 0 26 3 57 6 70 5 18 2 22 -16 22 -15
0 -20 -4 -17 -15z"/>
<path d="M4580 5588 c0 -19 2 -20 10 -8 13 19 13 30 0 30 -5 0 -10 -10 -10
-22z"/>
<path d="M4440 5580 c0 -5 5 -10 11 -10 5 0 7 5 4 10 -3 6 -8 10 -11 10 -2 0
-4 -4 -4 -10z"/>
<path d="M4531 5564 c0 -11 3 -14 6 -6 3 7 2 16 -1 19 -3 4 -6 -2 -5 -13z"/>
<path d="M4560 4940 c0 -5 9 -10 21 -10 11 0 17 5 14 10 -3 6 -13 10 -21 10
-8 0 -14 -4 -14 -10z"/>
<path d="M4112 5440 c0 -19 2 -27 5 -17 2 9 2 25 0 35 -3 9 -5 1 -5 -18z"/>
<path d="M3355 5480 c-3 -5 -1 -10 4 -10 6 0 11 5 11 10 0 6 -2 10 -4 10 -3 0
-8 -4 -11 -10z"/>
<path d="M3294 4475 c8 -8 20 -15 27 -15 7 0 4 6 -7 15 -25 19 -40 19 -20 0z"/>
<path d="M3676 4492 c-2 -4 14 -6 36 -4 27 3 43 0 49 -9 7 -11 9 -10 9 4 0 14
-9 17 -44 17 -25 0 -47 -3 -50 -8z"/>
<path d="M4793 3983 c-21 -7 -15 -31 13 -49 32 -22 52 -7 33 25 -15 23 -28 30
-46 24z"/>
<path d="M2747 3663 c-11 -10 34 -53 55 -53 28 0 21 28 -12 45 -33 17 -34 17
-43 8z"/>
<path d="M4010 2746 c0 -9 5 -16 10 -16 6 0 10 4 10 9 0 6 -4 13 -10 16 -5 3
-10 -1 -10 -9z"/>
<path d="M3990 2639 c0 -14 5 -19 17 -17 26 5 29 38 4 38 -15 0 -21 -6 -21
-21z"/>
<path d="M3478 2504 c-11 -10 3 -34 19 -34 8 0 13 7 11 17 -3 18 -20 27 -30
17z"/>
<path d="M3166 399 c-22 -5 -42 -12 -45 -14 -8 -9 94 7 104 16 11 11 -6 10
-59 -2z"/>
<path d="M4340 380 c20 -13 53 -13 45 0 -3 6 -18 10 -33 10 -21 0 -24 -2 -12
-10z"/>
<path d="M4093 8163 c20 -2 54 -2 75 0 20 2 3 4 -38 4 -41 0 -58 -2 -37 -4z"/>
<path d="M2545 5650 c-3 -6 1 -7 9 -4 18 7 21 14 7 14 -6 0 -13 -4 -16 -10z"/>
</g>
</svg>
